<?xml version="1.0" encoding="UTF-8" standalone="no"?>
<svg
   version="1.0"
   width="959"
   height="593"
   id="svg2"
   sodipodi:docname="dianaallaricon.svg"
   inkscape:version="1.3.2 (091e20e, 2023-11-25, custom)"
   xmlns:inkscape="http://www.inkscape.org/namespaces/inkscape"
   xmlns:sodipodi="http://sodipodi.sourceforge.net/DTD/sodipodi-0.dtd"
   xmlns="http://www.w3.org/2000/svg"
   xmlns:svg="http://www.w3.org/2000/svg">
  <sodipodi:namedview
     id="namedview1"
     pagecolor="#ffffff"
     bordercolor="#000000"
     borderopacity="0.25"
     inkscape:showpageshadow="2"
     inkscape:pageopacity="0.0"
     inkscape:pagecheckerboard="0"
     inkscape:deskcolor="#d1d1d1"
     inkscape:zoom="0.88775453"
     inkscape:cx="545.19575"
     inkscape:cy="254.57488"
     inkscape:window-width="1920"
     inkscape:window-height="986"
     inkscape:window-x="-11"
     inkscape:window-y="-11"
     inkscape:window-maximized="1"
     inkscape:current-layer="svg2" />
  <defs
     id="defs60" />
  <path
     d="m 717.73127,278.1358 0.14383,-0.45598 3.07047,-0.0427 2.18763,0.6717 1.4968,0.22389 0.69083,-1.45533 -1.03624,-1.45533 v -1.23144 l -1.72708,-1.45534 -1.4968,-3.80625 0.92111,-3.69431 -0.11514,-1.45533 -0.92111,-0.8956 c 0,0 1.03625,-1.11948 1.03625,-1.56727 0,-0.4478 0.34541,-1.45534 0.34541,-1.45534 l 1.38167,-0.89559 1.38166,-1.11949 0.34541,0.6717 -1.03624,1.11948 -0.92111,2.57482 0.23028,0.78364 1.26652,0.2239 0.34541,3.80626 -1.49679,0.67169 0.23027,2.46287 0.34542,-0.11195 0.80597,-1.34338 1.15138,1.23143 -1.15138,0.8956 -0.23028,2.35092 1.84222,2.35093 2.76332,0.33584 1.15139,-0.55974 2.30515,2.89665 0.96745,0.37138 0.49681,0.21408 0.1025,1.34831 -0.54618,2.14507 -1.1303,2.89675 -0.31758,3.77347 1.04721,3.21372 1.54145,-1.32691 1.30193,-3.44734 -0.32887,-2.34786 0.29777,-3.17564 2.07966,-2.61701 0.54871,-2.22833 -0.3542,-0.38517 1.42985,-2.78651 0.16164,-3.36814 -0.16094,-0.49446 -1.61264,-5.0933 -0.69083,0.33585 -2.53305,-1.67923 -1.26652,-3.24652 -1.38167,-2.46287 -1.61194,-0.67169 -1.4968,-2.46287 0.35536,-1.45534 0.3635,0.34905 0.77795,1.55408 2.30277,2.01508 3.45415,1.56729 2.87846,0.44779 0.11514,1.00753 -0.57569,0.6717 0.23028,1.90313 h 0.57569 l 1.4968,-1.67923 0.57569,-3.35847 1.95736,-2.79871 2.18763,-4.47796 0.80597,-3.80625 -0.46055,-0.78364 -0.11514,-6.49303 -1.15139,-2.35092 -0.80597,0.55974 -1.95735,0.2239 -0.34542,-0.33585 0.80598,-0.67169 1.49679,-1.34338 0.0449,-0.75747 0.38493,-0.0594 0.83668,0.36905 2.87846,-0.78364 4.14499,-1.34339 1.84222,-0.67169 5.06609,-3.69431 2.76333,-2.01508 2.41791,-2.46287 -2.99361,-1.11948 -0.9211,1.00753 -2.0725,1.90313 -5.64178,2.68677 -1.61195,-0.11195 -1.15138,-0.44779 -0.80597,0.44779 -1.61194,1.79119 -1.03625,0.89558 -0.9211,0.2239 -0.23028,-0.89559 1.38166,-1.23144 -0.56732,-1.16229 0.72243,0.15914 3.52933,-2.35531 2.53304,-2.23897 1.38166,-1.45534 0.5757,0.4478 1.95735,-1.00754 3.68444,-0.78364 5.0174,-2.41768 0.62441,-0.15715 2.07247,-0.67169 1.72708,-1.34338 0.80597,-1.23144 0.9211,0.11195 2.07325,-1.06395 0.36978,-0.25834 1.47169,-0.69279 -0.34542,-1.56728 0.57569,-1.00754 2.0725,-1.00753 0.57569,2.12702 -0.34542,1.23144 -1.72708,1.00754 v 0.67169 l 1.38167,-1.00754 2.76332,-3.13457 2.76333,-1.34338 2.9936,-1.00754 -0.23028,-1.67923 -0.69083,-2.01508 -1.38166,-1.67923 -1.26652,-0.55974 -1.49681,0.11195 -0.34541,0.33584 0.69083,0.89559 1.03625,-0.55974 1.4968,1.11949 0.57569,1.90312 -1.26652,1.23144 -1.61194,0.67169 -2.53305,-0.33584 -2.76333,-4.14211 -1.61193,-1.79117 h -1.26653 l -0.80597,0.55974 -1.38166,-1.79118 0.23027,-1.00754 1.72708,-3.58236 -2.05778,-3.05586 -0.40336,-0.34078 0.61892,-0.74547 0.77649,-2.279 0.26571,-0.77505 0.80002,-4.33456 0.11514,-3.02262 1.03625,-0.89558 -0.69083,-2.23898 2.18763,-2.46287 1.15139,1.00753 0.9211,-0.33584 3.79958,-2.12703 0.23028,-2.01508 2.07249,-0.33584 1.15138,-1.79118 -0.11513,-1.11949 -0.23028,-2.12702 0.57569,-0.89559 -0.23028,-0.78365 -0.9211,-1.00753 1.49679,-0.89559 1.26653,2.23897 1.03625,-0.2239 0.23027,0.89559 v 1.11949 l 1.38167,0.11195 0.34541,-1.90313 0.34542,-0.4478 -1.15138,-1.00753 0.69082,-1.00754 1.72708,-1.00754 0.69083,-1.00754 1.26652,-0.11195 c 0,0 0.23029,1.45534 0.69084,1.45534 0.46055,0 0.92111,0 0.92111,0 l 3.45415,-3.80626 2.41791,-2.12703 1.38167,-0.44779 1.4968,-3.24652 v -1.34338 l -1.61194,-2.57482 -1.38167,-1.45534 -1.95735,0.11195 0.34542,0.78364 -0.11514,0.33585 h -0.5757 l -2.07249,-1.56728 -0.11514,-3.35846 -0.57569,-1.34339 h -4.26013 l -6.44776,-20.71052 -1.38166,-0.67169 -4.26012,-1.67923 -1.03625,-0.11195 -1.26653,1.23144 -2.87846,2.01508 v 0.67169 l -0.5757,0.55974 -1.95735,-0.44779 -0.92111,-1.56729 v -0.78364 l -0.9211,-0.11195 h -0.92112 l -1.49679,2.91067 -2.0725,6.15718 -1.26653,3.35846 0.11515,3.35847 0.11514,1.00754 -0.5757,1.90312 -0.57569,0.6717 v 4.1421 l 1.38166,1.67923 -1.03625,2.79872 -1.84222,3.24651 -0.57569,3.80626 v 1.79118 l -1.07816,-0.28385 -1.01174,0.0818 -0.61019,0.31747 -0.63892,-0.004 -0.46056,1.11949 -0.46055,-0.33585 -0.69084,-0.67169 -1.03624,1.34338 -0.0345,3.48466 -0.65559,0.20916 -18.6941,4.67256 -0.44302,0.27474 -5.38811,1.43427 -3.22388,1.00753 -2.30278,-0.11194 -3.9147,0.89559 -2.19462,0.86281 -1.7201,1.26422 -1.49679,1.67922 -1.95736,2.57482 -2.0725,3.13457 -1.03625,2.01508 -0.46055,0.55974 -4.14498,3.80626 0.11514,1.79118 0.57569,0.78365 1.26652,0.55974 h 1.26653 v 1.00753 l -0.80597,1.45534 0.23027,1.00754 1.03625,1.45533 -0.11514,1.56728 -1.38167,0.78365 h -1.49679 l -1.15139,1.34338 -1.26652,2.23897 -1.49681,1.23144 -3.68443,0.33585 -1.84222,0.78364 -1.4968,0.89559 -1.15138,-0.11195 -1.38167,-0.89559 -4.4904,0.11195 -2.30278,0.33584 -2.87847,0.89559 -3.10874,1.00754 -2.07249,1.23144 1.38167,4.25405 1.26652,0.11195 0.92111,2.12702 0.11514,0.6717 -0.80598,0.67169 -1.49679,1.90313 -0.34542,1.11948 -1.38166,1.23144 -1.26653,0.78364 -0.69083,1.11949 -0.92111,0.78364 -1.01712,0.77932 -0.71631,0.35954 -3.90835,3.89884 -0.92112,0.33584 -2.99297,2.08364 -0.72676,-0.0768 -4.33996,2.80692 -2.76333,1.56728 -2.41791,2.57482 -2.87846,2.68677 -2.30277,0.55974 -2.0725,0.33585 -3.91471,1.79118 -1.4968,0.11195 -2.41791,-2.12703 -3.68443,0.4478 -1.84222,-1.00754 -1.69585,-0.93544 -0.82038,-0.22497 0.0983,-0.40688 0.11514,-1.00753 1.4968,-2.57482 1.42485,-1.20345 -0.15832,-3.4984 1.13741,-1.1059 0.77677,-0.23749 0.15831,-2.46287 1.09381,-2.09903 0.7484,0.4198 0.11514,0.4478 0.5757,0.11195 1.38166,-0.67169 -0.23028,-6.60498 -2.30277,-5.70939 -1.61194,-6.26913 -1.72708,-2.23897 -1.84221,-1.23144 -1.15139,0.78364 -2.76333,1.23144 -1.38166,3.47041 -1.95735,2.57482 -0.80597,0.4478 -1.03625,-0.4478 c 0,0 -1.84221,-1.00754 -1.72707,-1.45533 0.11513,-0.4478 0.34541,-3.47041 0.34541,-3.47041 l 2.41791,-0.8956 0.57569,-2.35092 0.46055,-1.79117 1.72708,-1.1195 -0.23027,-6.94082 -1.15139,-1.56728 -0.92111,-0.55975 -0.57569,-1.45532 0.57569,-0.55975 1.15138,0.2239 0.11514,-1.11949 -1.72707,-1.56729 -0.92111,-1.79117 h -1.84221 l -3.22389,-1.00754 -3.91471,-2.35093 h -1.95735 l -0.46056,0.4478 -0.69083,-0.33585 -2.18763,-1.56728 -2.07249,1.23144 -2.0725,1.56728 0.23028,2.46287 0.69083,0.2239 1.4968,0.33585 0.34542,0.55974 -1.84222,0.55975 -1.84221,0.22389 -1.03626,1.23144 -0.23027,1.45533 0.23027,1.11949 0.23028,3.80626 -2.53305,1.45533 -0.46055,-0.11195 v -2.91067 l 0.92111,-1.67922 0.46056,-1.67924 -0.5757,-0.55974 -1.38166,0.55974 -0.69084,2.91067 -1.95735,0.78364 -1.26652,1.34338 -0.11514,0.6717 0.46055,0.55974 -0.46055,1.79118 -1.61194,0.33584 v 0.78365 l 0.57569,1.67923 -0.80597,4.25405 -1.15138,2.79872 0.46055,3.24652 0.34541,0.78363 -0.57569,1.67924 -0.23027,0.55974 -0.23028,1.90313 2.53305,4.1421 2.07249,4.47795 1.03625,3.35847 -0.57569,3.24651 -0.69083,4.1421 -1.72708,3.58236 -0.23028,1.90313 -2.32105,2.13644 -0.72976,0.55006 -2.01529,1.11976 -1.4968,1.34338 -0.80597,0.2239 -1.03625,-0.67169 -2.18728,-0.61598 -0.61223,0.13455 -0.19409,-0.63806 -0.57569,-1.79118 -0.92111,-2.57482 -1.15139,-1.23144 -1.03624,-1.79118 -0.16635,-3.80106 -0.21285,-0.74726 0.26406,-2.05665 -1.15139,-3.13457 -0.46055,-4.25405 -0.80597,-1.67923 0.69083,-2.12703 0.57569,-2.01508 1.03625,-1.79117 -0.46056,-2.35093 -0.46055,-2.46287 0.34542,-1.23144 1.38166,-1.67923 0.11514,-1.90313 -0.57569,-0.89559 0.46055,-1.79118 0.34542,-2.23898 1.95735,-3.9182 2.0725,-4.70184 0.11514,-1.56729 -0.23028,-0.67169 -0.5757,0.33585 -2.9936,4.366 -1.95736,2.79872 -1.38165,1.23143 -0.5757,1.56728 -1.03625,0.55974 -0.80596,1.34339 -1.03626,-0.22389 -0.11513,-1.23144 0.92111,-1.67923 1.4968,-3.24652 1.26652,-1.11948 0.78439,-1.58689 0.4041,-0.61788 2.26567,-4.848 0.69083,-2.79872 1.38166,-3.02262 0.57569,-0.11195 0.80598,1.11949 h 0.46055 l 3.22388,-1.67923 1.03625,1.11949 0.34541,0.11195 0.92111,-0.78365 0.80597,-2.12703 1.72708,-0.55974 4.95096,-0.44779 1.38166,-1.79118 3.68443,-0.11195 4.14499,0.89559 h 1.26652 l 2.30277,-1.00754 1.61195,0.11195 1.4968,-0.4478 2.64819,0.33585 0.57569,0.2239 0.9211,-0.2239 -0.9211,-0.67169 -0.92111,-0.44779 -2.30277,-2.12703 v -4.8138 l -1.03625,-0.33584 -0.80597,0.78364 -4.37527,1.11948 -1.38166,0.33585 -2.07249,-0.55975 -0.34541,-0.22389 v -3.9182 l -1.03626,-0.11195 -1.84221,0.89558 -3.22388,1.34339 -4.72068,0.2239 -2.41791,0.78364 -2.87846,2.46287 -1.15139,0.67169 h -0.80597 l -0.92111,0.55975 -1.15139,-0.33585 -1.15138,-0.89559 -1.03625,0.67169 -2.76332,0.11195 -1.95736,-1.90312 -1.03624,-2.12703 -1.03625,-0.78365 -2.30277,-0.67169 h -1.61194 l -0.92111,-0.89558 -2.53305,2.01507 -0.69083,0.78364 -0.57569,-0.33584 0.23027,-1.79118 1.72708,-2.23898 0.34542,-1.67923 1.61194,-0.55974 1.03624,-2.12703 2.64819,-0.67169 0.23028,-0.67169 -0.80597,-0.78365 -3.33902,0.33585 -3.10874,1.67923 -1.61194,1.56728 -0.92111,1.23144 -1.26652,0.55974 -1.38167,2.01508 -0.11513,0.89559 -3.10874,1.45533 -1.72708,1.34339 -4.26013,0.67169 -0.46056,0.44779 v 0.6717 l -2.53304,1.56728 -1.95736,0.55975 -0.51015,0.40192 -0.72471,0.29205 -0.37708,0.87331 -0.80596,-0.11195 -0.46056,-0.78364 -1.95735,-0.55974 -0.80598,0.11195 -1.26652,0.67169 -0.69083,-0.4478 0.46056,-1.34339 1.38165,-2.12702 0.80597,-0.78364 -1.38166,-1.00754 -1.4968,0.55974 -2.0725,1.34339 -5.29637,2.23897 -2.07249,0.44779 -2.07249,-0.33584 -0.69921,-0.60818 -0.30983,-0.38273 2.73611,-2.0317 0.92112,-0.11195 3.22387,-3.47041 1.26653,-0.55975 1.61193,-2.68677 1.72709,-2.46287 2.18763,-1.79118 3.40069,-1.38976 6.58507,-2.8123 2.80525,-1.2722 0.43595,-1.57851 -3.16221,0.25668 -0.50825,0.75086 h -0.46056 l -1.26652,-2.12703 -6.33262,0.2239 -0.69083,0.55974 h -0.69083 l -0.34542,-0.89559 -0.5757,-1.23143 -1.84221,0.33584 -2.30277,2.23898 -1.15139,0.55974 h -2.18763 l -1.84221,-0.67169 v -1.45533 l -0.92112,-0.11195 -0.34541,0.33584 -1.84222,-0.89559 -0.34541,-2.01507 -1.03625,0.33584 -0.34541,0.6717 -1.72708,-0.33585 -3.79958,-1.67923 -2.76332,-1.79118 h -2.0725 l -0.9211,-0.67169 -1.61195,0.44779 -0.80596,0.78364 -0.23028,0.89559 h -3.45415 v -1.45533 l -4.49041,-0.2239 -0.23027,-1.00754 h -3.45417 l -1.15138,-1.11949 -1.03625,-4.25405 -0.57569,-3.80626 -1.38166,-0.55974 -1.61194,-0.33585 -0.46055,0.11195 -0.23028,5.70939 -21.46105,-0.0244 -0.78117,-0.0328 -20.24391,-0.39059 -13.24093,-0.44779 -18.88273,-0.89559 -17.76739,-1.30457 -0.91437,-0.33339 -21.847,-1.9444 -20.84009,-2.46287 -20.84007,-2.79872 -23.02772,-3.69431 -13.12579,-2.35092 -23.30658,-4.80087 -0.80007,-0.11114 -9.25617,-1.7507 -0.51317,-0.27825 -10.79776,-2.35079 -16.34968,-3.9182 -14.27718,-3.91821 -6.10234,-1.34339 -6.90832,-1.90312 -3.10874,-1.00754 -0.80597,0.55974 -0.23028,0.55974 1.72708,3.35847 0.80597,1.79118 -1.26652,2.46287 v 1.56728 l 0.46055,1.00754 -0.57569,1.23144 0.34542,2.23897 0.69083,0.89559 -0.11514,0.89559 -1.03625,0.11195 -0.46055,-1.34339 -0.80597,-1.67923 -1.26653,-1.00754 0.23028,-1.45533 1.61194,-0.33585 -0.23028,-1.23143 -0.23027,-0.78364 -1.4968,0.89559 -0.92111,0.78364 v 1.67923 l -1.61194,0.11195 -2.41791,-0.67169 -2.0725,-1.00754 -2.18763,-0.4478 -3.22388,-1.45533 -2.30277,-1.34339 -1.95736,-1.79118 -1.72708,-2.01507 -1.4968,-0.33585 -1.61194,6.49303 1.26653,2.23897 v 5.48549 l -0.46056,2.01508 1.03625,4.92574 1.95735,1.90313 -3.10874,0.4478 -0.11514,2.57482 1.84222,0.78364 -1.15138,2.79872 -1.95736,0.22389 -0.23028,2.01508 1.61194,2.01508 -1.4968,1.79118 -1.61194,4.47795 -2.30277,6.94082 -2.30277,4.47795 -3.56929,9.73954 -4.60555,9.40369 -5.75692,8.73201 -1.38167,2.01508 -0.57569,5.93328 -0.92111,4.1421 1.92884,2.44272 -0.34288,0.66678 -1.1254,3.27158 -0.11514,5.14964 -3.68444,8.17226 -2.18763,1.79118 -0.23028,0.78364 -1.26652,0.55975 -1.03625,2.91066 -0.57569,2.23898 1.95736,2.91067 1.15138,2.91066 0.80597,2.46287 -0.23028,4.47795 -1.26652,2.12703 -0.46055,4.03016 -0.69084,2.57482 1.26653,2.68677 1.95735,3.13456 1.61194,3.35847 0.92111,2.79871 -0.23027,2.23898 -0.23028,0.33584 v 1.45533 l 4.02985,4.36601 -0.34542,1.67923 -0.46055,1.56728 -0.46056,1.34338 0.11514,5.70939 1.4968,2.57483 1.38167,1.79117 1.95735,0.33585 0.69083,1.90313 -0.80597,2.46287 -1.4968,1.11949 h -0.80597 l -0.57569,2.68677 0.34541,2.01508 2.30278,3.02261 1.15138,3.69431 1.03625,3.24651 0.92111,2.12703 2.41791,4.03016 1.03624,1.79117 0.34542,2.01508 1.15138,0.67169 v 1.67923 l -0.57569,1.34339 -1.26652,4.92575 -0.34542,1.34338 1.72708,1.90313 2.9936,0.33584 3.22388,1.23144 2.76333,1.45533 h 2.07249 l 2.07249,2.12703 1.84222,3.35846 0.80597,1.56728 2.76333,1.45534 3.45415,0.55974 1.03625,1.45534 0.46055,2.23897 -1.03624,0.4478 0.23027,0.67169 2.30278,0.55974 1.95735,0.11195 2.0725,3.24651 2.76332,2.91067 0.5757,1.56729 1.84221,2.91066 0.23028,2.23898 v 6.49303 l 0.34542,1.23143 7.13859,1.00754 14.0469,1.90312 9.90529,0.67498 0.71626,0.51716 -1.87102,1.49463 -0.23028,1.00755 0.34542,0.67169 13.47121,7.38861 8.63539,5.26159 10.47761,5.93329 11.97441,6.94082 8.75053,1.67923 17.89674,1.87314 1.14295,0.55565 11.01147,1.37747 0.92111,-6.94082 11.85927,1.79118 8.87155,1.1203 0.68494,-8.2e-4 1.38165,0.33583 1.84223,2.01507 1.03625,3.02264 3.33902,1.56728 0.92111,2.23898 5.0661,5.48549 0.92111,1.11949 3.56929,1.45533 0.80597,1.45533 1.15139,0.6717 0.34541,1.90312 2.30277,4.47795 v 5.59745 l 1.61195,3.24651 5.29637,5.37353 3.68444,1.45534 1.26652,1.34338 v 0.4478 l 2.76332,1.56728 1.38167,0.44779 1.26652,0.78365 1.84221,0.67169 1.72709,-1.67923 3.10873,-4.25405 0.69083,-2.57483 1.61195,-2.23897 2.53304,-1.00754 3.22388,-1.23143 2.18763,1.56728 5.29638,0.44779 4.83582,0.78365 1.84221,1.45533 v 0.78364 l 1.84222,2.12703 4.26013,3.6943 0.11514,1.00755 1.26652,1.34338 0.57569,2.91066 3.79958,8.50811 -0.11514,1.34338 2.9936,1.79118 2.53305,4.5899 2.41791,3.02262 2.30277,0.89559 1.15138,1.56728 -0.92111,3.02262 0.46056,0.67169 0.92111,0.44779 -0.23028,2.35093 -0.46056,0.44779 0.46056,1.56729 2.30277,1.34338 0.92111,4.47795 1.4968,2.68677 5.41152,2.35093 3.68443,0.78364 2.9936,2.12702 2.30277,0.4478 0.92111,-0.33585 3.91471,0.78364 4.02985,2.68677 2.18763,-1.34338 0.69083,-1.00754 -1.26652,-1.90313 -0.69083,-4.25405 -1.26652,-4.8138 -0.5757,-1.67923 0.5757,-3.13456 0.80596,-2.68677 0.92111,-3.13457 1.03625,-3.80626 -1.61194,-1.34338 0.69083,-1.34338 2.87847,-0.22391 2.76332,-3.80625 2.41791,-0.44779 4.14499,-2.46288 1.26652,-1.00754 4.49041,-2.35092 4.02985,-1.67924 3.79958,-2.23896 1.95735,-1.45534 4.02985,-3.69431 0.92111,-0.55974 1.4968,-1.00754 1.84222,-1.34339 0.69083,-1.34338 7.02345,-3.13457 4.03466,-1.09773 0.45694,-0.0885 3.33783,-1.05269 5.75692,-0.2239 7.36887,2.46287 4.60554,0.78365 2.64819,-1.00755 2.30277,0.78365 2.30277,0.67169 0.57569,-1.45534 -2.30277,-0.78363 -1.84222,0.33584 -1.95736,-1.11948 c 0,0 0.11515,-0.8956 0.5757,-1.00755 0.46056,-0.11194 2.18764,-0.67169 2.18764,-0.67169 l 1.26652,1.00754 1.26652,-0.67169 2.30278,0.44779 1.03624,1.67924 0.23028,1.56728 3.22387,0.2239 1.26653,1.23143 -0.57569,1.11949 -0.92111,0.55974 1.15139,1.11949 5.9872,2.46287 2.53305,-0.89559 0.69083,-1.67923 1.84221,-0.4478 1.26653,-1.00753 0.92111,0.67169 0.57569,2.01508 -1.61194,0.55974 0.46056,0.44779 2.41791,-0.89558 1.61194,-2.35093 0.57569,-0.33584 -1.49681,-0.2239 0.5757,-1.11949 -0.11514,-1.00754 1.4968,-0.33584 0.80597,-0.8956 0.46055,0.55975 c 0,0 -0.11514,2.12702 0.46056,2.12702 0.57569,0 2.9936,0.4478 2.9936,0.4478 l 2.87847,1.34338 0.69082,1.00755 h 2.0725 l 0.80597,0.67169 1.61194,-2.12703 v -1.00754 h -0.92111 l -2.41791,-1.90312 -4.14499,-0.55975 -2.30277,-1.56728 0.80598,-1.90313 1.61193,0.2239 0.11514,-0.4478 -1.26652,-0.67169 v -0.33585 h 2.30277 l 1.26652,-2.12702 -0.9211,-1.34339 -0.23028,-1.90313 -1.03625,0.11195 -1.38166,1.45534 -0.46055,1.79118 -2.18764,-0.4478 -0.69083,-1.23144 1.26652,-1.34338 1.43923,-1.23143 0.53884,-0.35683 0.78526,-0.53877 1.84222,-2.91067 1.26652,0.55975 4.83582,-1.34339 1.4968,0.2239 1.03625,0.55974 h 3.68443 l 0.18109,-0.86987 0.74002,-0.13766 h 1.95736 l 0.46055,0.11195 0.9211,-1.90313 1.03625,-3.02262 1.61195,0.4478 2.18762,4.1421 v 0.67169 l -1.95735,1.34339 1.95735,0.2239 3.94719,-1.78172 0.48313,0.0792 2.478,-0.42447 4.26013,-1.45534 4.26012,-0.33584 3.10874,-0.4478 5.41151,1.23144 5.75694,2.68677 1.15138,1.00754 2.07249,0.78364 1.15139,1.34339 0.23027,1.90313 2.30277,-0.8956 h 2.76333 l 2.53305,-1.34338 2.64819,-2.46287 2.18763,0.11195 0.34542,-0.78365 -0.5757,-0.67169 0.11514,-1.34338 2.87847,-0.55975 h 1.84221 l 2.07249,1.00754 2.9936,1.00754 1.72708,2.57482 1.95736,0.67169 0.80597,2.35092 2.41791,1.11949 1.15139,1.79119 1.38166,0.44779 3.68443,0.89559 0.92111,2.12702 2.18763,2.57482 v 6.60498 l -1.03624,3.24651 0.23028,1.90313 0.9211,3.35847 1.26653,2.79872 0.57569,-0.33585 1.03624,-3.13457 -1.84221,-0.67169 -0.23028,-0.44779 1.15139,-0.4478 3.22388,0.67169 0.11513,1.11949 -2.30277,3.80626 -1.49679,1.67923 2.53304,2.57482 1.84221,2.12703 2.0725,3.6943 2.07249,2.68677 1.49681,3.47042 1.26652,0.22389 1.15139,-1.45533 1.26652,0.78364 1.84222,2.79872 0.46055,2.46287 2.18763,3.02262 0.57569,-0.89559 2.76333,0.2239 2.53305,1.56728 2.41791,3.58236 0.5757,2.35092 0.23027,2.01508 0.80597,0.67169 0.92111,0.33585 1.72708,-0.67169 1.03625,-1.1195 2.76332,-0.11194 2.18763,-1.00754 1.95735,-2.23897 -0.34541,-1.34339 -0.23028,-1.67923 0.46056,-1.34339 -0.23028,-1.34338 1.72708,-0.89559 0.23028,-2.35093 -0.46056,-1.23143 -0.34541,-8.28421 -0.92111,-5.26159 -3.22388,-5.70938 -2.53305,-4.03016 -1.84222,-3.69431 -2.07249,-2.01507 -2.07249,-5.14965 0.57569,-0.89559 0.80597,-0.89558 -1.15138,-2.01508 -2.87847,-2.57482 -3.45416,-3.80626 -2.64818,-4.36601 -3.79957,-6.49302 -2.65639,-6.74645 -1.61366,-5.06807 -0.0135,-0.61592 -0.55227,-4.36187 1.61193,-6.94082 1.03625,-2.91067 -0.34542,-1.79118 2.37485,-4.32413 -0.36345,-0.93603 0.40651,-0.67313 1.49681,-0.89558 3.56929,-3.80626 -0.69083,-2.23898 2.07249,-0.11195 2.53305,-2.35092 1.15139,-0.55974 1.61194,-2.35093 1.95735,-1.90313 1.49681,-2.46287 1.72707,-0.44779 0.80597,-1.90313 1.15139,-0.55975 0.34541,-4.366 1.84222,-4.25405 3.86109,-3.77986 0.19962,-0.5561 3.88385,-0.92563 3.33902,-0.33585 0.34542,-1.67923 1.38165,-4.47795 2.41791,-3.24651 4.60555,-3.69431 3.68443,-1.67923 1.95735,-0.44779 0.80598,0.33584 h 0.9211 l 2.18764,-3.35846 1.38166,-2.46288 -0.92111,0.33586 -1.61193,1.56727 -0.46056,-1.11948 h -2.99361 l 1.38167,-4.366 -0.57569,-0.89559 h -1.38167 v -0.6717 l -0.23027,-0.89558 1.15138,0.89558 1.03625,0.11195 1.72707,0.2239 2.6482,-1.11949 0.9211,-2.01507 0.46056,-1.45534 1.84221,-0.89559 0.23028,-2.91066 -0.57569,-0.4478 1.72707,-0.11195 -0.46055,-1.56728 -1.72707,-1.67923 -2.53305,-4.47795 -1.21791,-3.25375 -0.65551,-0.64037 -2.56944,-4.16322 -4.13163,1.16743 -1.11977,-1.0348 1.81834,-0.95654 -0.35027,-1.74795 -1.26285,-1.23636 -0.0866,-0.97773 -1.62458,-1.06843 -0.0634,-1.11873 1.91873,0.0657 0.15797,-0.95882 -0.87562,-0.54691 0.34112,-1.33679 -0.97912,-0.7635 0.31302,-3.24785 -0.61826,-0.83101 -2.27231,-0.27875 -1.53293,-1.44624 -3.4589,-0.65241 z m -26.54702,215.95382 1.72709,-0.4478 0.92111,-0.16792 1.03626,-1.62327 1.66951,-1.11949 0.92111,0.33586 1.20896,0.22389 0.28784,0.72767 -2.47548,0.83962 -2.99362,1.00754 -1.66951,0.83962 z m 9.61411,-3.47042 0.86354,0.72767 1.95737,-1.45534 3.79958,-2.91068 2.64819,-2.68678 1.78466,-4.58992 0.69084,-1.17546 0.11513,-2.35093 -0.51813,0.33584 -0.69082,1.95912 -1.03626,3.19054 -2.30278,3.63836 -3.10875,2.91067 -2.41791,1.34339 z m 38.8594,-167.19603 1.84222,-1.73521 2.24521,-1.79119 1.09382,-0.44779 0.11513,-1.39937 -0.46055,-4.25406 -1.03625,-1.62326 -0.46056,-1.28742 0.51813,-0.16793 1.95736,3.80628 0.28785,3.07859 -0.11514,2.35094 -2.41792,1.06351 -2.01493,1.67924 -0.80597,0.83962 z m 45.5646,-109.14271 1.54689,-0.47497 0.32567,-1.1874 0.73274,0.0792 0.73274,1.58321 -0.89557,0.31663 -2.76813,0.0792 z m -6.67607,0.55412 1.6283,-1.82068 h 1.13983 l 1.30265,1.02908 -1.70972,0.71243 -1.5469,0.71244 z m 8.31844,-46.51693 1.09382,-1.06352 0.97868,0.72767 0.40298,1.67924 -1.20896,0.61572 z m 4.77826,-4.08614 1.26653,1.28741 c 0,0 0.92111,0.056 0.92111,-0.16793 0,-0.22389 0.17271,-1.39936 0.17271,-1.39936 l 0.63327,-0.55974 -0.5757,-1.23144 -1.43924,0.50377 z m -63.15371,112.6768 0.80597,1.73521 0.11513,1.23144 0.80598,1.28741 c 0,0 0.63327,-0.61572 0.63327,-0.83962 0,-0.22389 -0.51813,-2.12703 -0.51813,-2.12703 l -0.51812,-1.62327 z M 558.48017,150.715 l 1.30265,-1.42488 1.5469,-0.55412 3.82652,-2.69144 1.6283,-0.3958 0.32568,0.31665 -3.6637,3.5622 -2.36105,1.34571 -1.46548,0.63328 z m 61.37551,22.24854 0.46055,1.73521 2.30278,0.11195 0.92111,-0.83962 c 0,0 -0.0576,-1.00754 -0.28784,-1.11949 -0.23029,-0.11195 -1.15139,-1.28742 -1.15139,-1.28742 l -1.55438,0.16793 -1.15139,0.11194 -0.23028,0.78365 z m -415.70919,-70.52795 1.43924,-0.11195 0.34542,0.95157 1.09382,-1.1195 h 1.66951 l 0.57569,1.06352 -1.09382,1.17546 0.46057,0.55976 -0.51813,1.39936 -0.97868,0.27987 c 0,0 -0.63327,0.056 -0.63327,-0.16792 0,-0.2239 1.03626,-1.79119 1.03626,-1.79119 l -1.20896,-0.39182 -0.23028,1.00754 -0.51813,0.4478 -1.09382,-1.56729 z m 265.7407,384.32136 -0.40298,-4.92576 -1.95736,-4.98174 -0.403,-4.86978 1.09383,-5.70941 2.36035,-4.75783 2.47548,-3.7503 2.24522,-2.46289 0.46055,0.16793 -3.3966,4.58991 -3.10875,4.53395 -1.43924,4.5899 -0.23028,3.58238 0.63327,4.25407 1.84222,4.98174 0.34542,3.58236 0.11513,1.00755 z m -290.89856,-159.47154 0.92111,1.06352 -0.11514,0.8956 -2.30278,-0.056 -0.40298,-0.83962 -0.46056,-1.00754 z m 1.38167,0 0.86354,-0.44779 2.53306,1.45534 2.18764,0.83961 -0.63327,0.44781 -3.22389,-0.16793 -1.15139,-1.11949 z m 14.73778,13.71378 1.26653,1.62325 0.5757,0.6717 1.09382,0.39182 0.40298,-1.00754 -0.69083,-1.23144 -1.89979,-1.39936 -0.74841,0.11195 z m -1.03625,5.98927 1.26653,2.18301 0.86354,1.34339 -1.03625,0.16792 -0.92111,-0.83961 c 0,0 -0.51813,-1.00755 -0.51813,-1.28743 0,-0.27986 0,-1.51131 0,-1.51131 z"
     style="fill:#99c6cd;fill-opacity:1;stroke-width:0.702289"
     id="US-Mainland" />
  <text
     xml:space="preserve"
     style="font-style:normal;font-variant:normal;font-weight:normal;font-stretch:normal;font-size:26.6667px;font-family:Metropolis;-inkscape-font-specification:Metropolis;fill:#99c6cd;fill-opacity:1;stroke:#000000"
     x="44.751774"
     y="99.639862"
     id="text1"><tspan
       sodipodi:role="line"
       id="tspan1"
       x="44.751774"
       y="99.639862" /></text>
  <text
     xml:space="preserve"
     style="font-style:normal;font-variant:normal;font-weight:bold;font-stretch:normal;font-size:135.594px;font-family:Metropolis;-inkscape-font-specification:'Metropolis Bold';fill:#ffffff;fill-opacity:1;stroke:none;stroke-width:5.08479"
     x="150.85747"
     y="256.10016"
     id="text2"
     transform="scale(0.95861874,1.0431676)"><tspan
       sodipodi:role="line"
       id="tspan2"
       x="150.85747"
       y="256.10016"
       style="stroke-width:5.08479">DIANA</tspan></text>
  <text
     xml:space="preserve"
     style="font-style:normal;font-variant:normal;font-weight:bold;font-stretch:normal;font-size:151.836px;font-family:Metropolis;-inkscape-font-specification:'Metropolis Bold';fill:#ffffff;fill-opacity:1;stroke:none;stroke-width:5.69384"
     x="238.28151"
     y="372.00046"
     id="text2-8"
     transform="scale(0.95591323,1.04612)"><tspan
       sodipodi:role="line"
       id="tspan2-4"
       x="238.28151"
       y="372.00046"
       style="font-style:normal;font-variant:normal;font-weight:800;font-stretch:normal;font-family:Metropolis;-inkscape-font-specification:'Metropolis Ultra-Bold';stroke-width:5.69384">ALLAR</tspan></text>
</svg>
